<svg width="222" height="36" viewBox="0 0 222 36" fill="none" xmlns="http://www.w3.org/2000/svg">
<path d="M31.2274 22.2726L15.1992 11.3466V11.3933L15.1531 11.3466L0 21.5723V26.8485L15.1992 16.6228L31.1813 27.5022L31.2274 27.5489L62.7772 7.09755V1.82129L31.2274 22.2726Z" fill="#722D5C"/>
<path d="M57.112 13.9609L31.2274 30.6302L15.1992 19.7041H15.1531L0 29.9298V35.2061L15.1992 24.9337L31.1813 35.8131L31.2274 35.9065L57.112 19.1905V13.9609Z" fill="#4E2D5E"/>
<path d="M31.2274 13.9144L15.1992 2.98833V3.03502L15.1531 2.98833L0 13.214V18.4903L15.1992 8.26459L31.1813 19.144L31.2274 19.1907L53.2892 5.27626V0L31.2274 13.9144Z" fill="#8A2C5B"/>
<path d="M77.1475 1.16748H98.3802V4.90289H89.8134V24.6072H85.7603V4.94958H77.1475V1.16748Z" fill="#2A2729"/>
<path d="M111.138 0.74707C112.934 0.74707 114.593 1.02723 116.066 1.63423C117.54 2.24123 118.83 3.0817 119.889 4.15563C120.995 5.32295 121.824 6.63034 122.422 8.1245C123.021 9.61867 123.298 11.2062 123.298 12.8871C123.298 14.5681 123.021 16.1556 122.468 17.6031C121.916 19.0506 121.087 20.3113 120.027 21.4319C118.922 22.5992 117.632 23.4864 116.112 24.0934C114.639 24.7471 112.934 25.0272 111.092 25.0272C109.25 25.0272 107.546 24.6537 106.026 23.9533C104.506 23.2529 103.17 22.2724 102.111 21.1051C101.144 20.0311 100.361 18.7704 99.7618 17.3696C99.1631 15.9222 98.8867 14.428 98.8867 12.8871C98.8867 11.2529 99.1631 9.71205 99.7158 8.26458C100.268 6.81711 101.098 5.55641 102.111 4.48248C103.17 3.31516 104.506 2.38131 106.026 1.72762C107.592 1.07392 109.296 0.74707 111.138 0.74707ZM103.078 12.8871C103.078 14.0545 103.262 15.1284 103.677 16.1089C104.091 17.0895 104.598 17.9766 105.289 18.677C106.026 19.4708 106.855 20.1245 107.868 20.5914C108.881 21.0584 109.987 21.2918 111.184 21.2918C112.336 21.2918 113.441 21.0584 114.454 20.6381C115.468 20.2179 116.343 19.5642 117.08 18.7704C117.724 18.0233 118.277 17.1829 118.646 16.2023C119.014 15.2218 119.244 14.1012 119.244 12.9338C119.244 11.7198 119.06 10.5992 118.646 9.57197C118.231 8.59143 117.724 7.70427 117.034 7.00388C116.297 6.21011 115.422 5.6031 114.408 5.18287C113.395 4.76264 112.336 4.52917 111.184 4.52917C110.033 4.52917 108.927 4.76264 107.914 5.18287C106.901 5.6031 106.026 6.2568 105.289 7.05057C104.598 7.79765 104.091 8.63812 103.677 9.61867C103.262 10.5992 103.078 11.7198 103.078 12.8871Z" fill="#2A2729"/>
<path d="M146.327 9.75892C146.327 10.9729 146.097 12.0935 145.636 13.1208C145.175 14.148 144.577 15.0352 143.84 15.7823C143.011 16.576 142.089 17.183 141.03 17.6033C139.971 18.0235 138.865 18.257 137.622 18.257H130.621V24.6072H126.43V1.16748H137.668C139.05 1.16748 140.293 1.44764 141.445 2.00795C142.596 2.56826 143.609 3.31534 144.438 4.29588C145.037 5.04297 145.498 5.88343 145.866 6.77059C146.189 7.70444 146.327 8.68499 146.327 9.75892ZM137.806 14.5216C138.451 14.5216 139.05 14.3815 139.648 14.1013C140.247 13.8212 140.708 13.4476 141.076 13.0274C141.399 12.5605 141.675 12.0469 141.905 11.4865C142.136 10.8795 142.274 10.3192 142.274 9.80561C142.274 8.49822 141.905 7.42429 141.122 6.58382C140.708 6.0702 140.201 5.69666 139.602 5.41651C139.004 5.13635 138.313 4.99627 137.576 4.99627H130.713V14.4749H137.806V14.5216Z" fill="#2A2729"/>
<path d="M167.421 24.6072H149.412V1.16748H153.557V20.8718H167.421V24.6072Z" fill="#2A2729"/>
<path d="M174.376 24.6072H170.323V1.16748H174.376V24.6072Z" fill="#2A2729"/>
<path d="M199.662 1.16748V24.6072H195.839L182.252 7.75114V24.6072H178.199V1.16748H182.022L195.701 18.0702V1.16748H199.662Z" fill="#2A2729"/>
<path d="M203.53 1.16748H221.447V4.99627H207.629V10.4593H219.973V14.1947H207.629V20.8251H222V24.5605H203.53V1.16748Z" fill="#2A2729"/>
<path d="M77.7464 30.5374V32.6386H78.4833C78.6215 32.6386 78.7136 32.5919 78.8517 32.5452C78.8978 32.4985 78.9439 32.4985 78.9899 32.4518C79.036 32.4051 79.036 32.3584 79.082 32.3117L79.6808 31.2378C79.7268 31.0977 79.819 31.0043 79.9111 30.911C80.0032 30.8176 80.0953 30.7242 80.1874 30.6775C80.2795 30.6308 80.4177 30.5374 80.5098 30.5374C80.648 30.4907 80.7862 30.4907 80.9704 30.4907C81.0625 30.4907 81.1546 30.4907 81.2468 30.4907C81.3389 30.4907 81.431 30.5374 81.5231 30.5374L81.431 31.3312H81.2007C81.1086 31.3312 81.0165 31.3312 80.9244 31.3312C80.8322 31.3312 80.7862 31.3779 80.7401 31.4246C80.6941 31.4713 80.648 31.4713 80.6019 31.518C80.5559 31.5647 80.5098 31.6113 80.5098 31.658L79.9111 32.6853C79.865 32.732 79.865 32.7787 79.819 32.872C79.7729 32.9187 79.7268 33.0121 79.6808 33.0588L81.5231 35.9538H80.4177L78.8978 33.479C78.8057 33.5257 78.6675 33.5257 78.5754 33.5257H77.7924V35.9538H76.8252V30.5374H77.7464Z" fill="#A7A9AC"/>
<path d="M85.2998 30.4438C85.7143 30.4438 86.0828 30.4905 86.4052 30.6306C86.7276 30.7707 87.05 30.9575 87.2803 31.1909C87.5106 31.4711 87.7409 31.7512 87.879 32.0781C88.0172 32.4049 88.0633 32.7785 88.0633 33.152C88.0633 33.5256 88.0172 33.8991 87.879 34.226C87.7409 34.5528 87.5566 34.833 87.3263 35.1131C87.0961 35.3933 86.7736 35.58 86.4512 35.7201C86.1288 35.8602 85.7143 35.9536 85.2998 35.9536C84.8853 35.9536 84.4707 35.8602 84.1483 35.7201C83.7799 35.5333 83.5035 35.3466 83.2272 35.0664C82.9969 34.833 82.8126 34.5528 82.6745 34.226C82.5363 33.8991 82.4902 33.5723 82.4902 33.1987C82.4902 32.8252 82.5363 32.4516 82.6745 32.1248C82.8126 31.7979 82.9969 31.5178 83.2272 31.2376C83.4575 30.9575 83.7799 30.7707 84.1023 30.5839C84.4707 30.4905 84.8392 30.4438 85.2998 30.4438ZM83.4114 33.1987C83.4114 33.4789 83.4575 33.7123 83.5496 33.9458C83.6417 34.1793 83.7799 34.366 83.918 34.5528C84.1023 34.7396 84.2865 34.8797 84.5168 34.973C84.7471 35.0664 85.0234 35.1131 85.2537 35.1131C85.5301 35.1131 85.7604 35.0664 85.9907 34.973C86.2209 34.8797 86.4052 34.7396 86.5894 34.5528C86.7276 34.366 86.8658 34.1793 86.9579 33.9458C87.05 33.7123 87.0961 33.4789 87.0961 33.1987C87.0961 32.9186 87.05 32.6851 86.9579 32.4516C86.8658 32.2182 86.7276 32.0314 86.5894 31.8446C86.4052 31.6579 86.2209 31.5178 85.9907 31.4244C85.7604 31.331 85.5301 31.2843 85.2537 31.2843C84.9774 31.2843 84.7471 31.331 84.5168 31.4244C84.2865 31.5178 84.1023 31.6579 83.918 31.8446C83.7799 32.0314 83.6417 32.2182 83.5496 32.4516C83.4575 32.6851 83.4114 32.9186 83.4114 33.1987Z" fill="#A7A9AC"/>
<path d="M94.3268 30.5371V35.9068H93.3596V33.4787H90.5961V35.9068H89.6289V30.5371H90.5961V32.5916H93.3596V30.5371H94.3268Z" fill="#A7A9AC"/>
<path d="M96.8609 33.1987C96.8609 33.4788 96.907 33.759 96.9991 33.9924C97.0912 34.2259 97.2294 34.4127 97.3676 34.5527C97.5518 34.7395 97.736 34.8796 97.9663 34.973C98.1966 35.0664 98.4269 35.113 98.7033 35.113C99.0257 35.113 99.302 35.0664 99.5323 34.9263C99.7626 34.8329 100.039 34.6461 100.269 34.4594L100.822 35.113C100.5 35.4399 100.177 35.6267 99.8547 35.7667C99.5323 35.9068 99.1178 35.9535 98.6572 35.9535C98.2427 35.9535 97.8742 35.9068 97.5518 35.7201C97.2294 35.58 96.907 35.3932 96.6767 35.113C96.4003 34.8796 96.2161 34.5527 96.0779 34.2259C95.9398 33.899 95.8477 33.5255 95.8477 33.1053C95.8477 32.7317 95.8937 32.3582 96.0779 32.0313C96.2161 31.7045 96.4003 31.3776 96.6767 31.1442C96.907 30.9107 97.2294 30.6773 97.5518 30.5372C97.8742 30.3971 98.2887 30.3037 98.7033 30.3037C99.1638 30.3037 99.5323 30.3971 99.9008 30.5372C100.223 30.6773 100.546 30.9107 100.868 31.1909L100.315 31.8446C100.085 31.6111 99.8547 31.471 99.5784 31.3776C99.3481 31.2843 99.0257 31.1909 98.7493 31.1909C98.473 31.1909 98.2427 31.2376 98.0124 31.3309C97.7821 31.4243 97.5979 31.5644 97.4136 31.7512C97.2294 31.938 97.1373 32.1247 96.9991 32.3582C96.907 32.685 96.8609 32.9185 96.8609 33.1987Z" fill="#A7A9AC"/>
<path d="M105.611 30.5371L107.96 35.9068H106.947L106.486 34.9262H103.677L103.262 35.9068H102.249L104.598 30.5371H105.611ZM104.045 34.0391H106.164L105.151 31.471H105.013L104.045 34.0391Z" fill="#A7A9AC"/>
<path d="M114.777 30.5372V35.9069H113.856V31.3777H111.829L111.369 34.6929C111.323 34.8797 111.277 35.0664 111.231 35.2065C111.139 35.3466 111.092 35.4867 110.954 35.58C110.724 35.7668 110.402 35.9069 110.033 35.9069C109.895 35.9069 109.757 35.9069 109.619 35.8602C109.48 35.8602 109.342 35.8135 109.204 35.7668L109.388 34.973C109.48 35.0197 109.573 35.0197 109.665 35.0197C109.757 35.0197 109.803 35.0197 109.895 35.0197C109.987 35.0197 110.033 35.0197 110.125 34.973C110.217 34.9263 110.263 34.9263 110.309 34.8796C110.402 34.7863 110.494 34.5995 110.494 34.4127L111.046 30.4438H114.777V30.5372Z" fill="#A7A9AC"/>
<path d="M116.297 30.5371H121.179V31.3776H119.199V35.9068H118.277V31.3776H116.297V30.5371Z" fill="#A7A9AC"/>
<path d="M123.62 34.4593L126.66 30.5371H127.535V35.9068H126.614V31.9846L123.574 35.9068H122.699V30.5371H123.62V34.4593Z" fill="#A7A9AC"/>
<path d="M133.983 30.5371V35.9068H133.016V33.4787H130.252V35.9068H129.285V30.5371H130.252V32.5916H133.016V30.5371H133.983Z" fill="#A7A9AC"/>
<path d="M136.655 35.9068H135.688V30.5371H139.695V31.3776H136.609V35.9068H136.655Z" fill="#A7A9AC"/>
<path d="M143.472 30.4438C143.886 30.4438 144.255 30.4905 144.577 30.6306C144.899 30.7707 145.222 30.9575 145.452 31.1909C145.682 31.4711 145.913 31.7512 146.051 32.0781C146.189 32.4049 146.235 32.7785 146.235 33.152C146.235 33.5256 146.189 33.8991 146.051 34.226C145.913 34.5528 145.728 34.833 145.498 35.1131C145.268 35.3933 144.946 35.58 144.623 35.7201C144.301 35.8602 143.886 35.9536 143.472 35.9536C143.057 35.9536 142.643 35.8602 142.32 35.7201C141.952 35.5333 141.675 35.3466 141.399 35.0664C141.169 34.833 140.985 34.5528 140.846 34.226C140.708 33.8991 140.662 33.5723 140.662 33.1987C140.662 32.8252 140.708 32.4516 140.846 32.1248C140.985 31.7979 141.169 31.5178 141.399 31.2376C141.629 30.9575 141.952 30.7707 142.274 30.5839C142.643 30.4905 143.057 30.4438 143.472 30.4438ZM141.629 33.1987C141.629 33.4789 141.675 33.7123 141.768 33.9458C141.86 34.1793 141.998 34.366 142.136 34.5528C142.32 34.7396 142.504 34.8797 142.735 34.973C142.965 35.0664 143.241 35.1131 143.472 35.1131C143.748 35.1131 143.978 35.0664 144.209 34.973C144.439 34.8797 144.623 34.7396 144.807 34.5528C144.946 34.366 145.084 34.1793 145.176 33.9458C145.268 33.7123 145.314 33.4789 145.314 33.1987C145.314 32.9186 145.268 32.6851 145.176 32.4516C145.084 32.2182 144.946 32.0314 144.807 31.8446C144.623 31.6579 144.439 31.5178 144.209 31.4244C143.978 31.331 143.748 31.2843 143.472 31.2843C143.195 31.2843 142.965 31.331 142.735 31.4244C142.504 31.5178 142.32 31.6579 142.136 31.8446C141.998 32.0314 141.86 32.2182 141.768 32.4516C141.675 32.6851 141.629 32.9186 141.629 33.1987Z" fill="#A7A9AC"/>
<path d="M147.847 35.9068V30.5371H150.564C150.794 30.5371 151.025 30.5838 151.209 30.6305C151.439 30.7239 151.577 30.8173 151.762 30.9573C151.9 31.0974 151.992 31.2375 152.038 31.3776C152.084 31.5177 152.13 31.7044 152.13 31.8912C152.13 31.9846 152.13 32.078 152.084 32.1714C152.084 32.2647 152.038 32.3581 151.992 32.4515C151.9 32.5916 151.762 32.7317 151.623 32.8251V32.8717C151.854 32.9651 151.992 33.1052 152.176 33.292C152.36 33.5254 152.453 33.8523 152.453 34.1791C152.453 34.4126 152.406 34.6461 152.314 34.8328C152.222 35.0196 152.13 35.2064 151.946 35.3465C151.762 35.4865 151.577 35.6266 151.393 35.72C151.163 35.8134 150.933 35.8601 150.702 35.8601H147.847V35.9068ZM151.255 31.9846C151.255 31.7978 151.209 31.6577 151.071 31.5177C150.933 31.3776 150.748 31.3309 150.564 31.3309H148.814V32.5916H150.702C150.794 32.5916 150.84 32.5916 150.933 32.5449C150.979 32.4982 151.071 32.4515 151.117 32.4048C151.209 32.3114 151.255 32.1714 151.255 31.9846ZM151.531 34.2258C151.531 33.9924 151.485 33.8056 151.347 33.7122C151.255 33.6188 151.163 33.5721 151.071 33.5254C150.979 33.4787 150.84 33.4321 150.748 33.4321H148.814V35.0663H150.748C150.887 35.0663 150.979 35.0196 151.071 34.9729C151.163 34.9262 151.255 34.8795 151.347 34.7861C151.393 34.7394 151.439 34.6461 151.485 34.5527C151.531 34.4593 151.531 34.3659 151.531 34.2258Z" fill="#A7A9AC"/>
<path d="M157.104 30.5371L159.453 35.9068H158.44L157.98 34.9262H155.17L154.755 35.9068H153.742L156.091 30.5371H157.104ZM155.538 34.0391H157.657L156.644 31.471H156.552L155.538 34.0391Z" fill="#A7A9AC"/>
<path d="M160.835 32.4985C160.835 32.2183 160.881 31.9849 160.973 31.7514C161.065 31.518 161.204 31.3312 161.342 31.1444C161.526 30.9576 161.756 30.8176 162.033 30.6775C162.309 30.5841 162.585 30.4907 162.862 30.4907H165.441V35.8604H164.474V34.4129H162.816C162.677 34.6464 162.493 34.8798 162.355 35.1133C162.217 35.3468 162.033 35.6269 161.894 35.8604H160.789L161.894 34.2261C161.756 34.1327 161.618 34.0394 161.48 33.946C161.342 33.8526 161.25 33.7125 161.158 33.5724C160.973 33.2923 160.835 32.9187 160.835 32.4985ZM161.802 32.4985C161.802 32.6386 161.802 32.732 161.848 32.872C161.894 33.0121 161.941 33.1055 161.987 33.1522C162.079 33.2923 162.171 33.3857 162.355 33.479C162.493 33.5724 162.677 33.6191 162.908 33.6191H164.52V31.4246H162.908C162.724 31.4246 162.539 31.4713 162.401 31.5647C162.263 31.658 162.125 31.7514 162.033 31.8915C161.894 31.9849 161.802 32.2183 161.802 32.4985Z" fill="#A7A9AC"/>
<path d="M171.704 30.5374V32.6386H172.441C172.579 32.6386 172.718 32.5919 172.81 32.5452C172.856 32.4985 172.902 32.4985 172.948 32.4518C172.994 32.4051 172.994 32.3584 173.04 32.3117L173.639 31.2378C173.685 31.0977 173.777 31.0043 173.869 30.911C173.961 30.8176 174.053 30.7242 174.145 30.6775C174.238 30.6308 174.376 30.5374 174.468 30.5374C174.606 30.4907 174.744 30.4907 174.928 30.4907C175.021 30.4907 175.113 30.4907 175.205 30.4907C175.297 30.4907 175.389 30.5374 175.481 30.5374L175.389 31.3312H175.159C175.067 31.3312 174.975 31.3312 174.882 31.3312C174.79 31.3312 174.744 31.3779 174.698 31.4246C174.652 31.4713 174.606 31.4713 174.56 31.518C174.514 31.5647 174.468 31.6113 174.468 31.658L173.869 32.6853C173.823 32.732 173.823 32.7787 173.777 32.872C173.731 32.9187 173.685 33.0121 173.639 33.0588L175.481 35.9538H174.376L172.856 33.479C172.764 33.5257 172.626 33.5257 172.533 33.5257H171.75V35.9538H170.783V30.5374H171.704Z" fill="#A7A9AC"/>
<path d="M179.212 30.4438C179.626 30.4438 179.995 30.4905 180.317 30.6306C180.64 30.7707 180.962 30.9575 181.192 31.1909C181.423 31.4711 181.653 31.7512 181.791 32.0781C181.929 32.4049 181.975 32.7785 181.975 33.152C181.975 33.5256 181.929 33.8991 181.791 34.226C181.653 34.5528 181.469 34.833 181.238 35.1131C181.008 35.3933 180.686 35.58 180.363 35.7201C180.041 35.8602 179.626 35.9536 179.212 35.9536C178.797 35.9536 178.383 35.8602 178.06 35.7201C177.692 35.5333 177.416 35.3466 177.139 35.0664C176.909 34.833 176.725 34.5528 176.587 34.226C176.448 33.8991 176.402 33.5723 176.402 33.1987C176.402 32.8252 176.448 32.4516 176.587 32.1248C176.725 31.7979 176.909 31.5178 177.139 31.2376C177.37 30.9575 177.692 30.7707 178.014 30.5839C178.429 30.4905 178.797 30.4438 179.212 30.4438ZM177.37 33.1987C177.37 33.4789 177.416 33.7123 177.508 33.9458C177.6 34.1793 177.738 34.366 177.876 34.5528C178.06 34.7396 178.245 34.8797 178.475 34.973C178.705 35.0664 178.982 35.1131 179.212 35.1131C179.488 35.1131 179.719 35.0664 179.949 34.973C180.179 34.8797 180.363 34.7396 180.548 34.5528C180.686 34.366 180.824 34.1793 180.916 33.9458C181.008 33.7123 181.054 33.4789 181.054 33.1987C181.054 32.9186 181.008 32.6851 180.916 32.4516C180.824 32.2182 180.686 32.0314 180.548 31.8446C180.363 31.6579 180.179 31.5178 179.949 31.4244C179.719 31.331 179.488 31.2843 179.212 31.2843C178.936 31.2843 178.705 31.331 178.475 31.4244C178.245 31.5178 178.06 31.6579 177.876 31.8446C177.738 32.0314 177.6 32.2182 177.508 32.4516C177.416 32.6851 177.37 32.9186 177.37 33.1987Z" fill="#A7A9AC"/>
<path d="M184.647 30.5371L186.535 33.1986L188.378 30.5371H189.391V35.9068H188.424V31.9846H188.378L186.628 34.506H186.305L184.555 31.9846H184.509V35.9068H183.634V30.5371H184.647Z" fill="#A7A9AC"/>
<path d="M195.747 30.5371V35.9068H194.78V31.3776H192.063V35.9068H191.142V30.5371H195.747Z" fill="#A7A9AC"/>
<path d="M200.63 30.5371L202.979 35.9068H201.966L201.505 34.9262H198.695L198.281 35.9068H197.268L199.617 30.5371H200.63ZM199.064 34.0391H201.183L200.169 31.471H200.077L199.064 34.0391Z" fill="#A7A9AC"/>
<path d="M209.196 30.5371V35.9068H208.229V33.4787H205.465V35.9068H204.498V30.5371H205.465V32.5916H208.229V30.5371H209.196Z" fill="#A7A9AC"/>
<path d="M211.913 34.4593L214.953 30.5371H215.828V35.9068H214.907V31.9846L211.867 35.9068H210.992V30.5371H211.913V34.4593Z" fill="#A7A9AC"/>
<path d="M217.395 32.4985C217.395 32.2183 217.441 31.9849 217.533 31.7514C217.625 31.518 217.763 31.3312 217.901 31.1444C218.086 30.9576 218.316 30.8176 218.592 30.6775C218.869 30.5841 219.145 30.4907 219.421 30.4907H222.001V35.8604H221.033V34.4129H219.375C219.237 34.6464 219.053 34.8798 218.915 35.1133C218.73 35.3468 218.592 35.6269 218.454 35.8604H217.349L218.454 34.2261C218.316 34.1327 218.178 34.0394 218.04 33.946C217.901 33.8526 217.809 33.7125 217.717 33.5724C217.533 33.2923 217.395 32.9187 217.395 32.4985ZM218.362 32.4985C218.362 32.6386 218.362 32.732 218.408 32.872C218.454 33.0121 218.5 33.1055 218.546 33.1522C218.638 33.2923 218.73 33.3857 218.915 33.479C219.053 33.5724 219.237 33.6191 219.467 33.6191H221.079V31.4246H219.467C219.283 31.4246 219.099 31.4713 218.961 31.5647C218.822 31.658 218.684 31.7514 218.592 31.8915C218.454 31.9849 218.362 32.2183 218.362 32.4985Z" fill="#A7A9AC"/>
</svg>
